<?xml version="1.0" encoding="utf-8"?>
<!-- Generator: Adobe Illustrator 19.1.0, SVG Export Plug-In . SVG Version: 6.00 Build 0)  -->
<svg version="1.1" id="Layer_1" xmlns="http://www.w3.org/2000/svg" xmlns:xlink="http://www.w3.org/1999/xlink" x="0px" y="0px"
	 viewBox="0 0 1098 155.9" style="enable-background:new 0 0 1098 155.9;" xml:space="preserve">
<style type="text/css">
	.st0{fill:#A5A7AA;}
	.st1{fill:#21366C;}
	.st2{fill:#F38020;}
	.st3{fill:#0E4C8B;}
	.st4{display:none;}
	.st5{display:inline;}
	.st6{fill:#FFFFFF;}
</style>
<g id="Gray">
	<g>
		<g>
			<path class="st0" d="M235.6,24.3v11.8h-41.5V65h35.2v11.8h-35.2v37.6h-14.7V24.3H235.6z"/>
			<path class="st0" d="M251.9,114.4V50.6h7.8c1.4,0,2.4,0.3,2.9,0.8c0.5,0.5,0.9,1.4,1.1,2.7l0.7,8.3c2-4,4.5-7.2,7.3-9.5
				c2.8-2.3,6.2-3.5,10.2-3.5c1.4,0,2.7,0.2,3.9,0.5c1.2,0.3,2.3,0.8,3.3,1.4l-0.9,10.1c-0.2,0.7-0.4,1.2-0.8,1.5
				c-0.4,0.3-0.8,0.4-1.4,0.4c-0.6,0-1.5-0.1-2.7-0.3s-2.4-0.3-3.7-0.3c-1.9,0-3.5,0.3-5,0.8c-1.5,0.5-2.8,1.3-3.9,2.4
				s-2.1,2.3-3,3.8s-1.7,3.2-2.4,5.1v39.7H251.9z"/>
			<path class="st0" d="M329.2,49.6c3.9,0,7.5,0.6,10.9,1.9c3.3,1.3,6.2,3.1,8.6,5.6c2.4,2.5,4.3,5.5,5.7,9c1.4,3.6,2,7.6,2,12.2
				c0,2.1-0.2,3.5-0.7,4.2c-0.5,0.7-1.3,1.1-2.5,1.1h-41c0.2,3.6,0.7,6.8,1.7,9.4c1,2.6,2.2,4.8,3.8,6.6c1.6,1.8,3.5,3.1,5.8,3.9
				c2.2,0.9,4.7,1.3,7.5,1.3c2.6,0,4.9-0.3,6.8-0.9c1.9-0.6,3.6-1.3,5-2c1.4-0.7,2.6-1.4,3.6-2c1-0.6,1.9-0.9,2.8-0.9
				c1.1,0,1.9,0.4,2.5,1.3l3.8,4.9c-1.6,1.9-3.4,3.5-5.4,4.8c-2,1.3-4.1,2.3-6.4,3.2c-2.3,0.8-4.6,1.4-6.9,1.8
				c-2.4,0.4-4.7,0.5-6.9,0.5c-4.4,0-8.5-0.7-12.3-2.2c-3.8-1.5-7-3.7-9.8-6.5c-2.8-2.9-4.9-6.4-6.5-10.7c-1.6-4.3-2.3-9.2-2.3-14.7
				c0-4.4,0.7-8.5,2.1-12.4c1.4-3.8,3.4-7.2,6-10c2.6-2.8,5.8-5.1,9.5-6.7C320.2,50.4,324.4,49.6,329.2,49.6z M329.4,59.3
				c-4.9,0-8.7,1.4-11.5,4.2c-2.8,2.8-4.6,6.7-5.3,11.8h31.7c0-2.3-0.3-4.3-1-6.3c-0.6-1.9-1.6-3.6-2.8-5.1
				c-1.3-1.4-2.8-2.6-4.7-3.4C334,59.7,331.8,59.3,329.4,59.3z"/>
			<path class="st0" d="M402.5,49.6c3.9,0,7.5,0.6,10.9,1.9c3.3,1.3,6.2,3.1,8.6,5.6c2.4,2.5,4.3,5.5,5.7,9c1.4,3.6,2,7.6,2,12.2
				c0,2.1-0.2,3.5-0.7,4.2c-0.5,0.7-1.3,1.1-2.5,1.1h-41c0.2,3.6,0.7,6.8,1.7,9.4c1,2.6,2.2,4.8,3.8,6.6c1.6,1.8,3.5,3.1,5.8,3.9
				c2.2,0.9,4.7,1.3,7.5,1.3c2.6,0,4.9-0.3,6.8-0.9c1.9-0.6,3.6-1.3,5-2c1.4-0.7,2.6-1.4,3.6-2c1-0.6,1.9-0.9,2.8-0.9
				c1.1,0,1.9,0.4,2.5,1.3l3.8,4.9c-1.6,1.9-3.4,3.5-5.4,4.8c-2,1.3-4.1,2.3-6.4,3.2c-2.3,0.8-4.6,1.4-6.9,1.8
				c-2.4,0.4-4.7,0.5-6.9,0.5c-4.4,0-8.5-0.7-12.3-2.2c-3.8-1.5-7-3.7-9.8-6.5c-2.8-2.9-4.9-6.4-6.5-10.7c-1.6-4.3-2.3-9.2-2.3-14.7
				c0-4.4,0.7-8.5,2.1-12.4c1.4-3.8,3.4-7.2,6-10c2.6-2.8,5.8-5.1,9.5-6.7C393.5,50.4,397.8,49.6,402.5,49.6z M402.7,59.3
				c-4.9,0-8.7,1.4-11.5,4.2c-2.8,2.8-4.6,6.7-5.3,11.8h31.7c0-2.3-0.3-4.3-1-6.3c-0.6-1.9-1.6-3.6-2.8-5.1
				c-1.3-1.4-2.8-2.6-4.7-3.4C407.3,59.7,405.1,59.3,402.7,59.3z"/>
			<path class="st0" d="M447.8,114.4V50.6h8.1c1.8,0,3,0.9,3.5,2.6l0.9,5.6c1.2-1.3,2.4-2.6,3.6-3.7c1.3-1.1,2.6-2.1,4-2.9
				c1.4-0.8,3-1.4,4.6-1.9c1.6-0.5,3.4-0.7,5.3-0.7c2,0,3.9,0.3,5.6,0.9c1.7,0.6,3.2,1.4,4.5,2.5c1.3,1.1,2.4,2.4,3.4,3.9
				c1,1.5,1.8,3.3,2.4,5.2c1-2.2,2.2-4.1,3.6-5.7c1.5-1.6,3.1-2.9,4.9-3.9c1.8-1,3.7-1.7,5.7-2.2c2-0.5,4.1-0.7,6.2-0.7
				c3.4,0,6.5,0.5,9.2,1.6c2.7,1.1,5,2.7,6.8,4.7c1.9,2.1,3.3,4.6,4.2,7.6c1,3,1.4,6.4,1.4,10.3v40.6h-13.5V73.8
				c0-4.5-1-7.9-2.9-10.2s-4.8-3.4-8.6-3.4c-1.7,0-3.3,0.3-4.8,0.9c-1.5,0.6-2.8,1.4-3.9,2.6s-2,2.5-2.7,4.2c-0.6,1.7-1,3.7-1,5.9
				v40.6h-13.5V73.8c0-4.7-0.9-8.1-2.8-10.3c-1.9-2.2-4.6-3.3-8.3-3.3c-2.5,0-4.8,0.6-6.9,1.9c-2.1,1.3-4.1,3-5.9,5.2v47H447.8z"/>
			<path class="st0" d="M597.3,114.4c-1.3,0-2.3-0.2-2.9-0.6c-0.7-0.4-1.2-1.2-1.7-2.4l-1.3-5.2c-1.6,1.5-3.2,2.8-4.8,3.9
				c-1.6,1.1-3.2,2.1-4.9,2.9c-1.7,0.8-3.5,1.4-5.4,1.8c-1.9,0.4-4.1,0.6-6.4,0.6c-2.6,0-5-0.4-7.2-1.1c-2.2-0.7-4.2-1.8-5.8-3.2
				c-1.6-1.4-2.9-3.2-3.8-5.3c-0.9-2.1-1.4-4.6-1.4-7.5c0-2.5,0.7-4.9,2-7.2c1.3-2.3,3.5-4.4,6.5-6.3c3-1.9,7-3.4,11.9-4.6
				c4.9-1.2,11-1.9,18.3-2.1v-4.3c0-4.6-1-8-2.9-10.3c-2-2.3-4.8-3.4-8.6-3.4c-2.6,0-4.8,0.3-6.5,1c-1.8,0.6-3.3,1.3-4.6,2.1
				c-1.3,0.8-2.4,1.4-3.4,2.1c-1,0.6-2.1,1-3.2,1c-0.9,0-1.7-0.2-2.3-0.7c-0.6-0.5-1.2-1.1-1.6-1.8l-2.4-4.4
				c7.2-6.7,15.8-10.1,25.8-10.1c3.7,0,6.9,0.6,9.8,1.8c2.9,1.2,5.3,2.9,7.2,5c1.9,2.2,3.4,4.7,4.4,7.7c1,3,1.5,6.3,1.5,9.9v40.5
				H597.3z M573.8,106c3.5,0,6.5-0.7,9-2c2.5-1.3,5-3.2,7.4-5.7V86.5c-4.8,0.2-8.8,0.6-12.1,1.2c-3.3,0.6-6,1.4-8,2.3
				c-2,1-3.5,2.1-4.4,3.3c-0.9,1.3-1.3,2.7-1.3,4.2c0,1.5,0.2,2.8,0.7,3.8c0.5,1.1,1.1,1.9,2,2.6c0.9,0.7,1.9,1.2,3,1.5
				C571.2,105.8,572.4,106,573.8,106z"/>
			<path class="st0" d="M624.6,114.4V50.6h8.1c1.8,0,3,0.9,3.5,2.6l0.9,5.9c1.3-1.4,2.7-2.7,4.2-3.9c1.5-1.2,3.1-2.2,4.7-3
				c1.7-0.8,3.5-1.5,5.3-1.9c1.9-0.5,4-0.7,6.2-0.7c3.5,0,6.6,0.6,9.2,1.8c2.6,1.2,4.9,2.8,6.7,4.9c1.8,2.1,3.2,4.7,4.1,7.7
				c0.9,3,1.4,6.3,1.4,9.9v40.6h-13.4V73.8c0-4.3-1-7.6-3-10c-2-2.4-5-3.6-9-3.6c-3,0-5.8,0.7-8.4,2.1c-2.6,1.4-5,3.3-7.2,5.6v46.5
				H624.6z"/>
			<path class="st1" d="M788.8,69.3c0,6.7-1.1,12.8-3.3,18.5c-2.2,5.6-5.2,10.5-9.2,14.5c-3.9,4.1-8.7,7.2-14.2,9.5
				c-5.5,2.3-11.7,3.4-18.4,3.4c-6.7,0-12.8-1.1-18.4-3.4c-5.5-2.3-10.3-5.5-14.2-9.5c-4-4.1-7-8.9-9.2-14.5
				c-2.2-5.6-3.3-11.8-3.3-18.5c0-6.7,1.1-12.8,3.3-18.5c2.2-5.6,5.2-10.5,9.2-14.6c4-4.1,8.7-7.3,14.2-9.6
				c5.5-2.3,11.6-3.4,18.4-3.4c6.8,0,12.9,1.1,18.4,3.4c5.5,2.3,10.3,5.5,14.2,9.6s7,8.9,9.2,14.6C787.8,56.5,788.8,62.7,788.8,69.3
				z M773.9,69.3c0-5.2-0.7-9.8-2.1-14c-1.4-4.1-3.4-7.6-6-10.5c-2.6-2.9-5.8-5.1-9.5-6.6c-3.7-1.5-7.9-2.3-12.5-2.3
				c-4.6,0-8.7,0.8-12.4,2.3c-3.7,1.5-6.9,3.8-9.5,6.6c-2.6,2.9-4.7,6.4-6.1,10.5c-1.4,4.1-2.1,8.8-2.1,14c0,5.2,0.7,9.9,2.1,14
				c1.4,4.1,3.4,7.6,6.1,10.5c2.6,2.9,5.8,5,9.5,6.6c3.7,1.5,7.9,2.3,12.4,2.3c4.6,0,8.8-0.8,12.5-2.3c3.7-1.5,6.9-3.7,9.5-6.6
				c2.6-2.9,4.6-6.3,6-10.5C773.2,79.2,773.9,74.6,773.9,69.3z"/>
			<path class="st1" d="M810.6,114.4V50.6h8.1c1.8,0,3,0.9,3.5,2.6l0.9,5.9c1.3-1.4,2.7-2.7,4.2-3.9c1.5-1.2,3.1-2.2,4.7-3
				c1.7-0.8,3.5-1.5,5.3-1.9c1.9-0.5,4-0.7,6.2-0.7c3.5,0,6.6,0.6,9.2,1.8c2.6,1.2,4.9,2.8,6.7,4.9c1.8,2.1,3.2,4.7,4.1,7.7
				c0.9,3,1.4,6.3,1.4,9.9v40.6h-13.4V73.8c0-4.3-1-7.6-3-10s-5-3.6-9-3.6c-3,0-5.8,0.7-8.4,2.1c-2.6,1.4-5,3.3-7.2,5.6v46.5H810.6z
				"/>
			<path class="st1" d="M903.9,21.8v92.6h-13.5V21.8H903.9z"/>
			<path class="st1" d="M946.2,31.3c0,1.2-0.2,2.4-0.7,3.4s-1.1,2-2,2.8c-0.8,0.8-1.8,1.5-2.9,1.9c-1.1,0.5-2.3,0.7-3.5,0.7
				c-1.2,0-2.3-0.2-3.4-0.7s-2-1.1-2.8-1.9c-0.8-0.8-1.4-1.8-1.9-2.8s-0.7-2.2-0.7-3.4c0-1.3,0.2-2.4,0.7-3.5s1.1-2,1.9-2.8
				c0.8-0.8,1.7-1.5,2.8-1.9s2.2-0.7,3.4-0.7c1.3,0,2.4,0.2,3.5,0.7c1.1,0.5,2.1,1.1,2.9,1.9c0.8,0.8,1.5,1.8,2,2.8
				S946.2,30.1,946.2,31.3z M943.9,50.6v63.8h-13.4V50.6H943.9z"/>
			<path class="st1" d="M970.3,114.4V50.6h8.1c1.8,0,3,0.9,3.5,2.6l0.9,5.9c1.3-1.4,2.7-2.7,4.2-3.9c1.5-1.2,3.1-2.2,4.7-3
				c1.7-0.8,3.5-1.5,5.3-1.9c1.9-0.5,4-0.7,6.2-0.7c3.5,0,6.6,0.6,9.2,1.8c2.6,1.2,4.9,2.8,6.7,4.9c1.8,2.1,3.2,4.7,4.1,7.7
				c0.9,3,1.4,6.3,1.4,9.9v40.6h-13.4V73.8c0-4.3-1-7.6-3-10c-2-2.4-5-3.6-9-3.6c-3,0-5.8,0.7-8.4,2.1c-2.6,1.4-5,3.3-7.2,5.6v46.5
				H970.3z"/>
			<path class="st1" d="M1072.8,49.6c3.9,0,7.5,0.6,10.9,1.9c3.3,1.3,6.2,3.1,8.6,5.6c2.4,2.5,4.3,5.5,5.7,9c1.4,3.6,2,7.6,2,12.2
				c0,2.1-0.2,3.5-0.7,4.2c-0.5,0.7-1.3,1.1-2.5,1.1h-41c0.2,3.6,0.7,6.8,1.7,9.4c1,2.6,2.2,4.8,3.8,6.6c1.6,1.8,3.5,3.1,5.8,3.9
				c2.2,0.9,4.7,1.3,7.5,1.3c2.6,0,4.9-0.3,6.8-0.9c1.9-0.6,3.6-1.3,5-2c1.4-0.7,2.6-1.4,3.6-2c1-0.6,1.9-0.9,2.8-0.9
				c1.1,0,1.9,0.4,2.5,1.3l3.8,4.9c-1.6,1.9-3.4,3.5-5.4,4.8c-2,1.3-4.1,2.3-6.4,3.2c-2.3,0.8-4.6,1.4-6.9,1.8
				c-2.4,0.4-4.7,0.5-6.9,0.5c-4.4,0-8.5-0.7-12.3-2.2c-3.8-1.5-7-3.7-9.8-6.5c-2.8-2.9-4.9-6.4-6.5-10.7c-1.6-4.3-2.3-9.2-2.3-14.7
				c0-4.4,0.7-8.5,2.1-12.4c1.4-3.8,3.4-7.2,6-10c2.6-2.8,5.8-5.1,9.5-6.7C1063.8,50.4,1068.1,49.6,1072.8,49.6z M1073,59.3
				c-4.9,0-8.7,1.4-11.5,4.2c-2.8,2.8-4.6,6.7-5.3,11.8h31.7c0-2.3-0.3-4.3-1-6.3c-0.6-1.9-1.6-3.6-2.8-5.1
				c-1.3-1.4-2.8-2.6-4.7-3.4C1077.6,59.7,1075.5,59.3,1073,59.3z"/>
		</g>
	</g>
	<g>
		<g>
			<path class="st2" d="M78,155.9c-3.8,0-7.6-0.3-11.4-0.8c-20.6-3-38.8-13.9-51.2-30.6C3,107.8-2.2,87.3,0.8,66.7
				C6.4,28.7,39.5,0,77.9,0c3.8,0,7.6,0.3,11.4,0.8c20.6,3,38.8,13.9,51.2,30.6c12.4,16.7,17.6,37.2,14.6,57.8
				C149.5,127.2,116.4,155.9,78,155.9z M77.9,7.5c-34.7,0-64.6,25.9-69.6,60.3c-2.7,18.6,2,37.2,13.2,52.3
				c11.2,15.1,27.7,24.9,46.3,27.6c3.4,0.5,6.9,0.8,10.3,0.8c34.7,0,64.6-25.9,69.6-60.3c2.7-18.6-2-37.2-13.2-52.3
				C123.2,20.8,106.8,11,88.2,8.2C84.7,7.7,81.3,7.5,77.9,7.5z"/>
		</g>
		<g>
			<path class="st3" d="M63.8,87.3c-2.1,0.6-3,1.2-2.9,2c0.1,0.7,1.4,1.1,3.8,1.1h48.2v6.5c0,1.1-0.6,1.7-1.7,1.7H100H57.1h-2.1
				c-1.1,0-1.7-0.6-1.7-1.7v-6.5l-0.9-3.9l-8.4-39h-8.4v-6.9c0-1.1,0.6-1.7,1.7-1.7h13.4c1.1,0,1.7,0.6,1.7,1.7V48h60.4v23.5
				c0,1.3-0.5,2-1.5,2.2L63.8,87.3z M48.5,107.6c0-2.3,0.9-4.3,2.6-6c1.7-1.7,3.7-2.6,6-2.6c2.4,0,4.4,0.9,6.1,2.6
				c1.7,1.7,2.5,3.7,2.5,6c0,2.4-0.8,4.4-2.5,6.1c-1.7,1.7-3.7,2.5-6.1,2.5c-2.3,0-4.3-0.8-6-2.5C49.4,112,48.5,110,48.5,107.6z
				 M91.5,107.6c0-2.3,0.9-4.3,2.6-6c1.7-1.7,3.7-2.6,6-2.6c2.4,0,4.4,0.9,6.1,2.6c1.7,1.7,2.5,3.7,2.5,6c0,2.4-0.8,4.4-2.5,6.1
				c-1.7,1.7-3.7,2.5-6.1,2.5c-2.3,0-4.3-0.8-6-2.5C92.3,112,91.5,110,91.5,107.6z"/>
		</g>
	</g>
</g>
<g id="White" class="st4">
	<g class="st5">
		<g>
			<path class="st6" d="M235.6,24.3v11.8h-41.5V65h35.2v11.8h-35.2v37.6h-14.7V24.3H235.6z"/>
			<path class="st6" d="M251.9,114.4V50.6h7.8c1.4,0,2.4,0.3,2.9,0.8c0.5,0.5,0.9,1.4,1.1,2.7l0.7,8.3c2-4,4.5-7.2,7.3-9.5
				c2.8-2.3,6.2-3.5,10.2-3.5c1.4,0,2.7,0.2,3.9,0.5c1.2,0.3,2.3,0.8,3.3,1.4l-0.9,10.1c-0.2,0.7-0.4,1.2-0.8,1.5
				c-0.4,0.3-0.8,0.4-1.4,0.4c-0.6,0-1.5-0.1-2.7-0.3s-2.4-0.3-3.7-0.3c-1.9,0-3.5,0.3-5,0.8c-1.5,0.5-2.8,1.3-3.9,2.4
				s-2.1,2.3-3,3.8s-1.7,3.2-2.4,5.1v39.7H251.9z"/>
			<path class="st6" d="M329.2,49.6c3.9,0,7.5,0.6,10.9,1.9c3.3,1.3,6.2,3.1,8.6,5.6c2.4,2.5,4.3,5.5,5.7,9c1.4,3.6,2,7.6,2,12.2
				c0,2.1-0.2,3.5-0.7,4.2c-0.5,0.7-1.3,1.1-2.5,1.1h-41c0.2,3.6,0.7,6.8,1.7,9.4c1,2.6,2.2,4.8,3.8,6.6c1.6,1.8,3.5,3.1,5.8,3.9
				c2.2,0.9,4.7,1.3,7.5,1.3c2.6,0,4.9-0.3,6.8-0.9c1.9-0.6,3.6-1.3,5-2c1.4-0.7,2.6-1.4,3.6-2c1-0.6,1.9-0.9,2.8-0.9
				c1.1,0,1.9,0.4,2.5,1.3l3.8,4.9c-1.6,1.9-3.4,3.5-5.4,4.8c-2,1.3-4.1,2.3-6.4,3.2c-2.3,0.8-4.6,1.4-6.9,1.8
				c-2.4,0.4-4.7,0.5-6.9,0.5c-4.4,0-8.5-0.7-12.3-2.2c-3.8-1.5-7-3.7-9.8-6.5c-2.8-2.9-4.9-6.4-6.5-10.7c-1.6-4.3-2.3-9.2-2.3-14.7
				c0-4.4,0.7-8.5,2.1-12.4c1.4-3.8,3.4-7.2,6-10c2.6-2.8,5.8-5.1,9.5-6.7C320.2,50.4,324.4,49.6,329.2,49.6z M329.4,59.3
				c-4.9,0-8.7,1.4-11.5,4.2c-2.8,2.8-4.6,6.7-5.3,11.8h31.7c0-2.3-0.3-4.3-1-6.3c-0.6-1.9-1.6-3.6-2.8-5.1
				c-1.3-1.4-2.8-2.6-4.7-3.4C334,59.7,331.8,59.3,329.4,59.3z"/>
			<path class="st6" d="M402.5,49.6c3.9,0,7.5,0.6,10.9,1.9c3.3,1.3,6.2,3.1,8.6,5.6c2.4,2.5,4.3,5.5,5.7,9c1.4,3.6,2,7.6,2,12.2
				c0,2.1-0.2,3.5-0.7,4.2c-0.5,0.7-1.3,1.1-2.5,1.1h-41c0.2,3.6,0.7,6.8,1.7,9.4c1,2.6,2.2,4.8,3.8,6.6c1.6,1.8,3.5,3.1,5.8,3.9
				c2.2,0.9,4.7,1.3,7.5,1.3c2.6,0,4.9-0.3,6.8-0.9c1.9-0.6,3.6-1.3,5-2c1.4-0.7,2.6-1.4,3.6-2c1-0.6,1.9-0.9,2.8-0.9
				c1.1,0,1.9,0.4,2.5,1.3l3.8,4.9c-1.6,1.9-3.4,3.5-5.4,4.8c-2,1.3-4.1,2.3-6.4,3.2c-2.3,0.8-4.6,1.4-6.9,1.8
				c-2.4,0.4-4.7,0.5-6.9,0.5c-4.4,0-8.5-0.7-12.3-2.2c-3.8-1.5-7-3.7-9.8-6.5c-2.8-2.9-4.9-6.4-6.5-10.7c-1.6-4.3-2.3-9.2-2.3-14.7
				c0-4.4,0.7-8.5,2.1-12.4c1.4-3.8,3.4-7.2,6-10c2.6-2.8,5.8-5.1,9.5-6.7C393.5,50.4,397.8,49.6,402.5,49.6z M402.7,59.3
				c-4.9,0-8.7,1.4-11.5,4.2c-2.8,2.8-4.6,6.7-5.3,11.8h31.7c0-2.3-0.3-4.3-1-6.3c-0.6-1.9-1.6-3.6-2.8-5.1
				c-1.3-1.4-2.8-2.6-4.7-3.4C407.3,59.7,405.1,59.3,402.7,59.3z"/>
			<path class="st6" d="M447.8,114.4V50.6h8.1c1.8,0,3,0.9,3.5,2.6l0.9,5.6c1.2-1.3,2.4-2.6,3.6-3.7c1.3-1.1,2.6-2.1,4-2.9
				c1.4-0.8,3-1.4,4.6-1.9c1.6-0.5,3.4-0.7,5.3-0.7c2,0,3.9,0.3,5.6,0.9c1.7,0.6,3.2,1.4,4.5,2.5c1.3,1.1,2.4,2.4,3.4,3.9
				c1,1.5,1.8,3.3,2.4,5.2c1-2.2,2.2-4.1,3.6-5.7c1.5-1.6,3.1-2.9,4.9-3.9c1.8-1,3.7-1.7,5.7-2.2c2-0.5,4.1-0.7,6.2-0.7
				c3.4,0,6.5,0.5,9.2,1.6c2.7,1.1,5,2.7,6.8,4.7c1.9,2.1,3.3,4.6,4.2,7.6c1,3,1.4,6.4,1.4,10.3v40.6h-13.5V73.8
				c0-4.5-1-7.9-2.9-10.2s-4.8-3.4-8.6-3.4c-1.7,0-3.3,0.3-4.8,0.9c-1.5,0.6-2.8,1.4-3.9,2.6s-2,2.5-2.7,4.2c-0.6,1.7-1,3.7-1,5.9
				v40.6h-13.5V73.8c0-4.7-0.9-8.1-2.8-10.3c-1.9-2.2-4.6-3.3-8.3-3.3c-2.5,0-4.8,0.6-6.9,1.9c-2.1,1.3-4.1,3-5.9,5.2v47H447.8z"/>
			<path class="st6" d="M597.3,114.4c-1.3,0-2.3-0.2-2.9-0.6c-0.7-0.4-1.2-1.2-1.7-2.4l-1.3-5.2c-1.6,1.5-3.2,2.8-4.8,3.9
				c-1.6,1.1-3.2,2.1-4.9,2.9c-1.7,0.8-3.5,1.4-5.4,1.8c-1.9,0.4-4.1,0.6-6.4,0.6c-2.6,0-5-0.4-7.2-1.1c-2.2-0.7-4.2-1.8-5.8-3.2
				c-1.6-1.4-2.9-3.2-3.8-5.3c-0.9-2.1-1.4-4.6-1.4-7.5c0-2.5,0.7-4.9,2-7.2c1.3-2.3,3.5-4.4,6.5-6.3c3-1.9,7-3.4,11.9-4.6
				c4.9-1.2,11-1.9,18.3-2.1v-4.3c0-4.6-1-8-2.9-10.3c-2-2.3-4.8-3.4-8.6-3.4c-2.6,0-4.8,0.3-6.5,1c-1.8,0.6-3.3,1.3-4.6,2.1
				c-1.3,0.8-2.4,1.4-3.4,2.1c-1,0.6-2.1,1-3.2,1c-0.9,0-1.7-0.2-2.3-0.7c-0.6-0.5-1.2-1.1-1.6-1.8l-2.4-4.4
				c7.2-6.7,15.8-10.1,25.8-10.1c3.7,0,6.9,0.6,9.8,1.8c2.9,1.2,5.3,2.9,7.2,5c1.9,2.2,3.4,4.7,4.4,7.7c1,3,1.5,6.3,1.5,9.9v40.5
				H597.3z M573.8,106c3.5,0,6.5-0.7,9-2c2.5-1.3,5-3.2,7.4-5.7V86.5c-4.8,0.2-8.8,0.6-12.1,1.2c-3.3,0.6-6,1.4-8,2.3
				c-2,1-3.5,2.1-4.4,3.3c-0.9,1.3-1.3,2.7-1.3,4.2c0,1.5,0.2,2.8,0.7,3.8c0.5,1.1,1.1,1.9,2,2.6c0.9,0.7,1.9,1.2,3,1.5
				C571.2,105.8,572.4,106,573.8,106z"/>
			<path class="st6" d="M624.6,114.4V50.6h8.1c1.8,0,3,0.9,3.5,2.6l0.9,5.9c1.3-1.4,2.7-2.7,4.2-3.9c1.5-1.2,3.1-2.2,4.7-3
				c1.7-0.8,3.5-1.5,5.3-1.9c1.9-0.5,4-0.7,6.2-0.7c3.5,0,6.6,0.6,9.2,1.8c2.6,1.2,4.9,2.8,6.7,4.9c1.8,2.1,3.2,4.7,4.1,7.7
				c0.9,3,1.4,6.3,1.4,9.9v40.6h-13.4V73.8c0-4.3-1-7.6-3-10c-2-2.4-5-3.6-9-3.6c-3,0-5.8,0.7-8.4,2.1c-2.6,1.4-5,3.3-7.2,5.6v46.5
				H624.6z"/>
			<path class="st1" d="M788.8,69.3c0,6.7-1.1,12.8-3.3,18.5c-2.2,5.6-5.2,10.5-9.2,14.5c-3.9,4.1-8.7,7.2-14.2,9.5
				c-5.5,2.3-11.7,3.4-18.4,3.4c-6.7,0-12.8-1.1-18.4-3.4c-5.5-2.3-10.3-5.5-14.2-9.5c-4-4.1-7-8.9-9.2-14.5
				c-2.2-5.6-3.3-11.8-3.3-18.5c0-6.7,1.1-12.8,3.3-18.5c2.2-5.6,5.2-10.5,9.2-14.6c4-4.1,8.7-7.3,14.2-9.6
				c5.5-2.3,11.6-3.4,18.4-3.4c6.8,0,12.9,1.1,18.4,3.4c5.5,2.3,10.3,5.5,14.2,9.6s7,8.9,9.2,14.6C787.8,56.5,788.8,62.7,788.8,69.3
				z M773.9,69.3c0-5.2-0.7-9.8-2.1-14c-1.4-4.1-3.4-7.6-6-10.5c-2.6-2.9-5.8-5.1-9.5-6.6c-3.7-1.5-7.9-2.3-12.5-2.3
				c-4.6,0-8.7,0.8-12.4,2.3c-3.7,1.5-6.9,3.8-9.5,6.6c-2.6,2.9-4.7,6.4-6.1,10.5c-1.4,4.1-2.1,8.8-2.1,14c0,5.2,0.7,9.9,2.1,14
				c1.4,4.1,3.4,7.6,6.1,10.5c2.6,2.9,5.8,5,9.5,6.6c3.7,1.5,7.9,2.3,12.4,2.3c4.6,0,8.8-0.8,12.5-2.3c3.7-1.5,6.9-3.7,9.5-6.6
				c2.6-2.9,4.6-6.3,6-10.5C773.2,79.2,773.9,74.6,773.9,69.3z"/>
			<path class="st1" d="M810.6,114.4V50.6h8.1c1.8,0,3,0.9,3.5,2.6l0.9,5.9c1.3-1.4,2.7-2.7,4.2-3.9c1.5-1.2,3.1-2.2,4.7-3
				c1.7-0.8,3.5-1.5,5.3-1.9c1.9-0.5,4-0.7,6.2-0.7c3.5,0,6.6,0.6,9.2,1.8c2.6,1.2,4.9,2.8,6.7,4.9c1.8,2.1,3.2,4.7,4.1,7.7
				c0.9,3,1.4,6.3,1.4,9.9v40.6h-13.4V73.8c0-4.3-1-7.6-3-10s-5-3.6-9-3.6c-3,0-5.8,0.7-8.4,2.1c-2.6,1.4-5,3.3-7.2,5.6v46.5H810.6z
				"/>
			<path class="st1" d="M903.9,21.8v92.6h-13.5V21.8H903.9z"/>
			<path class="st1" d="M946.2,31.3c0,1.2-0.2,2.4-0.7,3.4s-1.1,2-2,2.8c-0.8,0.8-1.8,1.5-2.9,1.9c-1.1,0.5-2.3,0.7-3.5,0.7
				c-1.2,0-2.3-0.2-3.4-0.7s-2-1.1-2.8-1.9c-0.8-0.8-1.4-1.8-1.9-2.8s-0.7-2.2-0.7-3.4c0-1.3,0.2-2.4,0.7-3.5s1.1-2,1.9-2.8
				c0.8-0.8,1.7-1.5,2.8-1.9s2.2-0.7,3.4-0.7c1.3,0,2.4,0.2,3.5,0.7c1.1,0.5,2.1,1.1,2.9,1.9c0.8,0.8,1.5,1.8,2,2.8
				S946.2,30.1,946.2,31.3z M943.9,50.6v63.8h-13.4V50.6H943.9z"/>
			<path class="st1" d="M970.3,114.4V50.6h8.1c1.8,0,3,0.9,3.5,2.6l0.9,5.9c1.3-1.4,2.7-2.7,4.2-3.9c1.5-1.2,3.1-2.2,4.7-3
				c1.7-0.8,3.5-1.5,5.3-1.9c1.9-0.5,4-0.7,6.2-0.7c3.5,0,6.6,0.6,9.2,1.8c2.6,1.2,4.9,2.8,6.7,4.9c1.8,2.1,3.2,4.7,4.1,7.7
				c0.9,3,1.4,6.3,1.4,9.9v40.6h-13.4V73.8c0-4.3-1-7.6-3-10c-2-2.4-5-3.6-9-3.6c-3,0-5.8,0.7-8.4,2.1c-2.6,1.4-5,3.3-7.2,5.6v46.5
				H970.3z"/>
			<path class="st1" d="M1072.8,49.6c3.9,0,7.5,0.6,10.9,1.9c3.3,1.3,6.2,3.1,8.6,5.6c2.4,2.5,4.3,5.5,5.7,9c1.4,3.6,2,7.6,2,12.2
				c0,2.1-0.2,3.5-0.7,4.2c-0.5,0.7-1.3,1.1-2.5,1.1h-41c0.2,3.6,0.7,6.8,1.7,9.4c1,2.6,2.2,4.8,3.8,6.6c1.6,1.8,3.5,3.1,5.8,3.9
				c2.2,0.9,4.7,1.3,7.5,1.3c2.6,0,4.9-0.3,6.8-0.9c1.9-0.6,3.6-1.3,5-2c1.4-0.7,2.6-1.4,3.6-2c1-0.6,1.9-0.9,2.8-0.9
				c1.1,0,1.9,0.4,2.5,1.3l3.8,4.9c-1.6,1.9-3.4,3.5-5.4,4.8c-2,1.3-4.1,2.3-6.4,3.2c-2.3,0.8-4.6,1.4-6.9,1.8
				c-2.4,0.4-4.7,0.5-6.9,0.5c-4.4,0-8.5-0.7-12.3-2.2c-3.8-1.5-7-3.7-9.8-6.5c-2.8-2.9-4.9-6.4-6.5-10.7c-1.6-4.3-2.3-9.2-2.3-14.7
				c0-4.4,0.7-8.5,2.1-12.4c1.4-3.8,3.4-7.2,6-10c2.6-2.8,5.8-5.1,9.5-6.7C1063.8,50.4,1068.1,49.6,1072.8,49.6z M1073,59.3
				c-4.9,0-8.7,1.4-11.5,4.2c-2.8,2.8-4.6,6.7-5.3,11.8h31.7c0-2.3-0.3-4.3-1-6.3c-0.6-1.9-1.6-3.6-2.8-5.1
				c-1.3-1.4-2.8-2.6-4.7-3.4C1077.6,59.7,1075.5,59.3,1073,59.3z"/>
		</g>
	</g>
	<g class="st5">
		<g>
			<path class="st2" d="M78,155.9c-3.8,0-7.6-0.3-11.4-0.8c-20.6-3-38.8-13.9-51.2-30.6C3,107.8-2.2,87.3,0.8,66.7
				C6.4,28.7,39.5,0,77.9,0c3.8,0,7.6,0.3,11.4,0.8c20.6,3,38.8,13.9,51.2,30.6c12.4,16.7,17.6,37.2,14.6,57.8
				C149.5,127.2,116.4,155.9,78,155.9z M77.9,7.5c-34.7,0-64.6,25.9-69.6,60.3c-2.7,18.6,2,37.2,13.2,52.3
				c11.2,15.1,27.7,24.9,46.3,27.6c3.4,0.5,6.9,0.8,10.3,0.8c34.7,0,64.6-25.9,69.6-60.3c2.7-18.6-2-37.2-13.2-52.3
				C123.2,20.8,106.8,11,88.2,8.2C84.7,7.7,81.3,7.5,77.9,7.5z"/>
		</g>
		<g>
			<path class="st3" d="M63.8,87.3c-2.1,0.6-3,1.2-2.9,2c0.1,0.7,1.4,1.1,3.8,1.1h48.2v6.5c0,1.1-0.6,1.7-1.7,1.7H100H57.1h-2.1
				c-1.1,0-1.7-0.6-1.7-1.7v-6.5l-0.9-3.9l-8.4-39h-8.4v-6.9c0-1.1,0.6-1.7,1.7-1.7h13.4c1.1,0,1.7,0.6,1.7,1.7V48h60.4v23.5
				c0,1.3-0.5,2-1.5,2.2L63.8,87.3z M48.5,107.6c0-2.3,0.9-4.3,2.6-6c1.7-1.7,3.7-2.6,6-2.6c2.4,0,4.4,0.9,6.1,2.6
				c1.7,1.7,2.5,3.7,2.5,6c0,2.4-0.8,4.4-2.5,6.1c-1.7,1.7-3.7,2.5-6.1,2.5c-2.3,0-4.3-0.8-6-2.5C49.4,112,48.5,110,48.5,107.6z
				 M91.5,107.6c0-2.3,0.9-4.3,2.6-6c1.7-1.7,3.7-2.6,6-2.6c2.4,0,4.4,0.9,6.1,2.6c1.7,1.7,2.5,3.7,2.5,6c0,2.4-0.8,4.4-2.5,6.1
				c-1.7,1.7-3.7,2.5-6.1,2.5c-2.3,0-4.3-0.8-6-2.5C92.3,112,91.5,110,91.5,107.6z"/>
		</g>
	</g>
</g>
</svg>
