<?xml version="1.0" encoding="utf-8"?>
<!-- Generator: Adobe Illustrator 19.1.0, SVG Export Plug-In . SVG Version: 6.00 Build 0)  -->
<svg version="1.1" id="Layer_1" xmlns="http://www.w3.org/2000/svg" xmlns:xlink="http://www.w3.org/1999/xlink" x="0px" y="0px"
	 viewBox="-648 849.3 102.7 102.7" style="enable-background:new -648 849.3 102.7 102.7;" xml:space="preserve">
<style type="text/css">
	.st0{fill:#0E4D8B;}
</style>
<path class="st0" d="M-596.7,951.9c-13.7,0-26.6-5.3-36.3-15s-15-22.6-15-36.3s5.3-26.6,15-36.3s22.6-15,36.3-15
	c13.7,0,26.6,5.3,36.3,15c9.7,9.7,15,22.6,15,36.3s-5.3,26.6-15,36.3C-570,946.5-583,951.9-596.7,951.9z M-596.7,853.5
	c-12.6,0-24.4,4.9-33.3,13.8c-8.9,8.9-13.8,20.7-13.8,33.3s4.9,24.4,13.8,33.3c8.9,8.9,20.7,13.8,33.3,13.8
	c12.6,0,24.4-4.9,33.3-13.8c8.9-8.9,13.8-20.7,13.8-33.3s-4.9-24.4-13.8-33.3C-572.3,858.4-584.2,853.5-596.7,853.5z"/>
<path class="st0" d="M-566,877.8v36.4c0,0.3,0,0.7-0.1,1c-0.1,0.3-0.3,0.5-0.5,0.6c-0.2,0.1-0.4,0.3-0.6,0.4
	c-0.1,0.1-0.4,0.2-0.8,0.3l-0.8,0.1h-1.7c0,2.5-0.9,4.7-2.7,6.4s-3.9,2.7-6.4,2.7s-4.7-0.9-6.4-2.7s-2.7-3.9-2.7-6.4h-13.6
	c0,2.5-0.9,4.7-2.7,6.4s-3.9,2.7-6.4,2.7s-4.7-0.9-6.4-2.7c-1.8-1.8-2.7-3.9-2.7-6.4h-4c-0.2,0-0.4,0-0.8-0.1
	c-0.3,0-0.6-0.1-0.8-0.3l-0.6-0.4c-0.2-0.1-0.3-0.3-0.5-0.6s-0.2-0.6-0.1-1c0-0.6,0.2-1.2,0.6-1.6c0.4-0.4,1-0.7,1.6-0.7v-14
	c0-0.3,0-0.7,0.1-1.2l0.2-1.3c0-0.3,0.2-0.7,0.5-1.1l0.8-1.1l7-7c0.5-0.5,1.1-0.9,1.8-1.1c0.7-0.3,1.4-0.4,2.1-0.4h5.7v-6.8
	c0-0.6,0.2-1.2,0.7-1.7s1-0.7,1.6-0.6h36.4c0.6,0,1.2,0.2,1.6,0.6C-566.3,876.6-566.1,877.1-566,877.8z M-620.6,898.3h13.6v-9.1
	h-5.6c-0.3,0-0.6,0.1-0.8,0.3l-7,7c-0.2,0.2-0.3,0.5-0.3,0.8L-620.6,898.3L-620.6,898.3z M-607,916.5c0-1.2-0.4-2.3-1.3-3.2
	c-0.9-0.9-2-1.4-3.2-1.3c-1.2,0-2.3,0.5-3.2,1.3c-0.9,0.9-1.4,1.9-1.4,3.2s0.4,2.4,1.4,3.2s2,1.2,3.2,1.3c1.1,0.1,2.2-0.4,3.2-1.3
	C-607.4,918.7-606.9,917.6-607,916.5z M-575.1,916.5c0-1.2-0.4-2.3-1.3-3.2c-0.9-0.9-2-1.4-3.2-1.3c-1.2,0-2.3,0.5-3.2,1.3
	c-0.9,0.9-1.4,1.9-1.3,3.2c0,1.3,0.5,2.4,1.3,3.2c0.9,0.8,1.9,1.2,3.2,1.3c1.3,0.1,2.4-0.4,3.2-1.3
	C-575.7,918.7-575.2,917.6-575.1,916.5z"/>
</svg>
