<?xml version="1.0" encoding="utf-8"?>
<!-- Generator: Adobe Illustrator 19.1.0, SVG Export Plug-In . SVG Version: 6.00 Build 0)  -->
<svg version="1.1" id="Layer_1" xmlns="http://www.w3.org/2000/svg" xmlns:xlink="http://www.w3.org/1999/xlink" x="0px" y="0px"
	 viewBox="-648 849.3 102.7 102.7" style="enable-background:new -648 849.3 102.7 102.7;" xml:space="preserve">
<style type="text/css">
	.st0{fill:#0E4D8B;}
</style>
<path class="st0" d="M-596.7,951.9c-13.7,0-26.6-5.3-36.3-15s-15-22.6-15-36.3s5.3-26.6,15-36.3s22.6-15,36.3-15
	c13.7,0,26.6,5.3,36.3,15c9.7,9.7,15,22.6,15,36.3s-5.3,26.6-15,36.3C-570,946.5-583,951.9-596.7,951.9z M-596.7,853.5
	c-12.6,0-24.4,4.9-33.3,13.8c-8.9,8.9-13.8,20.7-13.8,33.3s4.9,24.4,13.8,33.3c8.9,8.9,20.7,13.8,33.3,13.8
	c12.6,0,24.4-4.9,33.3-13.8c8.9-8.9,13.8-20.7,13.8-33.3s-4.9-24.4-13.8-33.3C-572.3,858.4-584.2,853.5-596.7,853.5z"/>
<path class="st0" d="M-603.9,907.3c-1.4,0.4-2.1,0.9-2,1.4c0.1,0.5,1,0.8,2.6,0.8h33.3v4.5c0,0.8-0.4,1.2-1.2,1.2h-7.7h-29.6h-1.4
	c-0.8,0-1.2-0.4-1.2-1.2v-4.5l-0.6-2.7l-5.8-26.9h-5.8v-4.7c0-0.8,0.4-1.2,1.2-1.2h9.2c0.8,0,1.2,0.4,1.2,1.2v5.1h41.7v16.2
	c0,0.9-0.4,1.4-1.1,1.5L-603.9,907.3z M-614.4,921.3c0-1.6,0.6-3,1.8-4.1c1.2-1.2,2.6-1.8,4.1-1.8c1.7,0,3.1,0.6,4.2,1.8
	c1.1,1.2,1.7,2.6,1.7,4.1c0,1.7-0.6,3.1-1.7,4.2c-1.1,1.1-2.5,1.7-4.2,1.7c-1.6,0-3-0.6-4.1-1.7C-613.7,924.4-614.4,923-614.4,921.3
	z M-584.8,921.3c0-1.6,0.6-3,1.8-4.1c1.2-1.2,2.6-1.8,4.1-1.8c1.7,0,3.1,0.6,4.2,1.8c1.1,1.2,1.7,2.6,1.7,4.1c0,1.7-0.6,3.1-1.7,4.2
	c-1.1,1.1-2.5,1.7-4.2,1.7c-1.6,0-3-0.6-4.1-1.7C-584.2,924.3-584.8,923-584.8,921.3z"/>
</svg>
