<?xml version="1.0" encoding="utf-8"?>
<!-- Generator: Adobe Illustrator 19.1.0, SVG Export Plug-In . SVG Version: 6.00 Build 0)  -->
<svg version="1.1" id="Layer_1" xmlns="http://www.w3.org/2000/svg" xmlns:xlink="http://www.w3.org/1999/xlink" x="0px" y="0px"
	 viewBox="-648 849.3 102.7 102.7" style="enable-background:new -648 849.3 102.7 102.7;" xml:space="preserve">
<style type="text/css">
	.st0{fill:#0E4D8B;}
</style>
<g>
	<path class="st0" d="M-596.7,951.9c-13.7,0-26.6-5.3-36.3-15s-15-22.6-15-36.3s5.3-26.6,15-36.3s22.6-15,36.3-15
		c13.7,0,26.6,5.3,36.3,15c9.7,9.7,15,22.6,15,36.3s-5.3,26.6-15,36.3C-570,946.5-583,951.9-596.7,951.9z M-596.7,853.5
		c-12.6,0-24.4,4.9-33.3,13.8c-8.9,8.9-13.8,20.7-13.8,33.3s4.9,24.4,13.8,33.3c8.9,8.9,20.7,13.8,33.3,13.8
		c12.6,0,24.4-4.9,33.3-13.8c8.9-8.9,13.8-20.7,13.8-33.3s-4.9-24.4-13.8-33.3C-572.3,858.4-584.2,853.5-596.7,853.5z"/>
	<path id="concierge" class="st0" d="M-610.3,880.2c-0.1,7.9,6.5,14.6,14.3,14.7c8.1,0.1,14.8-6.6,14.7-14.8
		c-0.1-8.1-6.4-14.2-14.6-14.2C-604,865.8-610.2,872.1-610.3,880.2z M-596.5,906.3c-0.4,0-0.8,0.3-0.8,0.8c0,0.4,0.3,0.8,0.8,0.8
		c0.4,0,0.8-0.3,0.8-0.8C-595.8,906.8-596.2,906.3-596.5,906.3z M-596.7,915.2c-0.4,0-0.8,0.3-0.8,0.8s0.3,0.8,0.8,0.8
		c0.4,0,0.8-0.3,0.8-0.8S-596.2,915.2-596.7,915.2z M-596.8,924c-0.4,0-0.8,0.3-0.8,0.8c0,0.4,0.3,0.8,0.8,0.8
		c0.4,0,0.8-0.3,0.8-0.8C-596,924.4-596.3,924-596.8,924z M-570,931.1c0.2-3.9,0.6-16.7-0.2-22.7c-0.8-6.6-7.1-9.7-13.4-9.8
		c-1.9,10.7-5.5,25.3-12.8,29.8c-7.4-4.1-14.2-30.3-14.2-30.3c-6.9-0.1-12.1,6.7-12.6,13.1c-0.4,5-0.2,17.2-0.1,19.8h53.3V931.1z
		 M-588.7,905.2l0.1-7.3l-6,2.2c-0.4-0.6-1.2-1.1-2-1.1s-1.5,0.4-2,1l-5.4-2.1l-0.1,7.3l5.6-2c0.5,0.5,1.1,0.9,1.9,0.9s1.5-0.4,2-1
		h0.6L-588.7,905.2z"/>
</g>
</svg>
