<?xml version="1.0" encoding="utf-8"?>
<!-- Generator: Adobe Illustrator 19.1.0, SVG Export Plug-In . SVG Version: 6.00 Build 0)  -->
<svg version="1.1" id="Layer_1" xmlns="http://www.w3.org/2000/svg" xmlns:xlink="http://www.w3.org/1999/xlink" x="0px" y="0px"
	 viewBox="-64 587.9 102.7 102.7" style="enable-background:new -64 587.9 102.7 102.7;" xml:space="preserve">
<style type="text/css">
	.st0{fill:#0E4D8B;}
</style>
<path class="st0" d="M-12.6,690.6c-13.7,0-26.6-5.3-36.3-15c-9.7-9.7-15-22.6-15-36.3c0-13.7,5.3-26.6,15-36.3
	c9.7-9.7,22.6-15,36.3-15c13.7,0,26.6,5.3,36.3,15c9.7,9.7,15,22.6,15,36.3c0,13.7-5.3,26.6-15,36.3C14,685.2,1.1,690.6-12.6,690.6z
	 M-12.6,592.2c-12.6,0-24.4,4.9-33.3,13.8c-8.9,8.9-13.8,20.7-13.8,33.3s4.9,24.4,13.8,33.3c8.9,8.9,20.7,13.8,33.3,13.8
	s24.4-4.9,33.3-13.8c8.9-8.9,13.8-20.7,13.8-33.3s-4.9-24.4-13.8-33.3C11.7,597.1-0.1,592.2-12.6,592.2z"/>
<path class="st0" d="M16.9,653.8c0.8,0.9,1.2,1.9,1.2,3c0,1.2-0.4,2.2-1.3,3.1c-0.9,0.9-1.9,1.3-3.1,1.3H-17c-1.2,0-2.2-0.4-3.1-1.3
	c-0.9-0.9-1.3-1.9-1.3-3.1c0-1.2,0.4-2.2,1.3-3.1c0.9-0.9,1.9-1.3,3.1-1.3h30.7C15,652.5,16.1,652.9,16.9,653.8z M-34.6,634.9H-39
	c-1.3,0-2.3,0.4-3.2,1.3c-0.8,0.9-1.2,1.9-1.2,3.1s0.4,2.2,1.3,3c0.9,0.9,1.9,1.3,3.1,1.3h4.4c1.2,0,2.2-0.4,3.1-1.3
	c0.9-0.9,1.3-1.9,1.3-3.1c0-1.2-0.4-2.2-1.3-3.1C-32.4,635.3-33.4,634.9-34.6,634.9z M-34.6,652.5H-39c-1.3,0-2.3,0.4-3.2,1.3
	s-1.2,1.9-1.2,3.1c0,1.2,0.4,2.2,1.3,3.1c0.9,0.9,1.9,1.3,3.1,1.3h4.4c1.2,0,2.2-0.4,3.1-1.3c0.9-0.9,1.3-1.9,1.3-3.1
	c0-1.2-0.4-2.2-1.3-3C-32.4,652.9-33.4,652.5-34.6,652.5z M-34.6,617.3H-39c-1.3,0-2.3,0.5-3.2,1.3c-0.8,0.9-1.2,1.9-1.2,3.1
	c0,1.2,0.4,2.2,1.3,3.1c0.9,0.9,1.9,1.3,3.1,1.3h4.4c1.2,0,2.2-0.5,3.1-1.3c0.9-0.9,1.3-1.9,1.3-3.1s-0.4-2.2-1.3-3.1
	C-32.4,617.7-33.4,617.3-34.6,617.3z M13.7,634.9H-17c-1.2,0-2.2,0.4-3.1,1.3c-0.9,0.9-1.3,1.9-1.3,3.1s0.4,2.2,1.3,3
	c0.9,0.9,1.9,1.3,3.1,1.3h30.7c1.2,0,2.2-0.4,3.1-1.3c0.9-0.9,1.3-1.9,1.3-3.1c0-1.2-0.4-2.2-1.2-3.1
	C16.1,635.3,15,634.9,13.7,634.9z M13.7,617.3H-17c-1.2,0-2.2,0.5-3.1,1.3c-0.9,0.9-1.3,1.9-1.3,3.1c0,1.2,0.4,2.2,1.3,3.1
	c0.9,0.9,1.9,1.3,3.1,1.3h30.7c1.2,0,2.2-0.5,3.1-1.3c0.9-0.9,1.3-1.9,1.3-3.1s-0.4-2.2-1.2-3.1C16.1,617.7,15,617.3,13.7,617.3z"/>
</svg>
