<?xml version="1.0" encoding="utf-8"?>
<!-- Generator: Adobe Illustrator 19.1.0, SVG Export Plug-In . SVG Version: 6.00 Build 0)  -->
<svg version="1.1" id="Layer_1" xmlns="http://www.w3.org/2000/svg" xmlns:xlink="http://www.w3.org/1999/xlink" x="0px" y="0px"
	 viewBox="-648 849.3 102.7 102.7" style="enable-background:new -648 849.3 102.7 102.7;" xml:space="preserve">
<style type="text/css">
	.st0{fill:#0E4D8B;}
</style>
<path class="st0" d="M-596.7,951.9c-13.7,0-26.6-5.3-36.3-15s-15-22.6-15-36.3s5.3-26.6,15-36.3s22.6-15,36.3-15
	c13.7,0,26.6,5.3,36.3,15c9.7,9.7,15,22.6,15,36.3s-5.3,26.6-15,36.3C-570,946.5-583,951.9-596.7,951.9z M-596.7,853.5
	c-12.6,0-24.4,4.9-33.3,13.8c-8.9,8.9-13.8,20.7-13.8,33.3s4.9,24.4,13.8,33.3c8.9,8.9,20.7,13.8,33.3,13.8
	c12.6,0,24.4-4.9,33.3-13.8c8.9-8.9,13.8-20.7,13.8-33.3s-4.9-24.4-13.8-33.3C-572.3,858.4-584.2,853.5-596.7,853.5z"/>
<path id="info" class="st0" d="M-627.4,901.1c-0.2-8.5,2.7-15.7,8.7-21.9c6-6.1,13.2-9.2,21.6-9.3c8.4-0.1,15.7,2.8,21.8,8.7
	c6,5.9,9.2,13,9.4,21.5c0.1,8.5-2.8,15.8-8.8,21.9s-13.1,9.2-21.6,9.4c-8.5,0.1-15.8-2.8-21.9-8.8
	C-624.2,916.7-627.3,909.5-627.4,901.1L-627.4,901.1z M-603.9,912.8c-1.2,4.6-0.4,7,2.3,7c1.3,0,3.2-0.6,5.6-1.7
	c2.4-1.2,4.8-2.9,7.1-5.2l-1.2-1.6c-2.1,1.6-3.7,2.4-4.8,2.4c-0.6,0-0.7-0.9-0.3-2.5l2.8-10.7c1.2-4.3,0.7-6.4-1.5-6.4
	c-1.3,0-3.3,0.6-6,1.9c-2.6,1.3-5.2,3-7.7,5l1.1,1.7c2.3-1.5,4-2.3,5-2.3c0.5,0,0.5,0.8,0,2.3L-603.9,912.8L-603.9,912.8z
	 M-589.6,883.9c0-2.6-1.3-3.9-4-3.9c-1.9,0-3.3,0.5-4.3,1.6s-1.5,2.2-1.5,3.3c-0.1,1.2,0.2,2.2,1,2.9s1.9,1.1,3.3,1.1
	c1.7,0,3-0.5,4.1-1.5C-590.1,886.6-589.6,885.4-589.6,883.9L-589.6,883.9z"/>
</svg>
