<?xml version="1.0" encoding="utf-8"?>
<!-- Generator: Adobe Illustrator 18.1.1, SVG Export Plug-In . SVG Version: 6.00 Build 0)  -->
<svg version="1.1" id="Layer_1" xmlns="http://www.w3.org/2000/svg" xmlns:xlink="http://www.w3.org/1999/xlink" x="0px" y="0px"
	 viewBox="0 0 512 512" style="enable-background:new 0 0 512 512;" xml:space="preserve">
<path style="fill:#EC8326;" d="M296.638,101.38L192.863,371.758l-0.072-0.024l-0.516,1.356L31,311.17l6.073-15.822l145.524,55.83
	l98.226-255.863L296.638,101.38z M225.154,203.686L93.412,153.46L43.187,285.226l131.765,50.226L225.154,203.686z M481,371.032
	c0,25.17-20.484,45.654-45.654,45.654c-25.176,0-45.684-20.508-45.684-45.654c0-25.194,20.508-45.684,45.684-45.684
	C460.539,325.348,481,345.838,481,371.032z M464.031,371.032c-0.023-15.822-12.893-28.686-28.686-28.686
	c-15.822,0-28.667,12.84-28.667,28.686c0,15.798,12.869,28.662,28.667,28.662C451.162,399.694,464.031,386.83,464.031,371.032z
	 M306.177,370.606c0.025,25.176-20.483,45.66-45.653,45.66c-25.17,0-45.655-20.508-45.655-45.66
	c0-25.194,20.484-45.678,45.655-45.678C285.695,324.928,306.177,345.412,306.177,370.606z M289.186,370.606
	c0.024-15.84-12.84-28.686-28.662-28.686c-15.798,0-28.662,12.846-28.662,28.686c0,15.798,12.864,28.668,28.662,28.668
	C276.346,399.274,289.186,386.404,289.186,370.606z M386.056,365H308.62c-0.847-24-22.314-44.184-46.992-44.184
	c-10.927,0-22.409,3.641-30.282,10.043L289.612,166H451v157.29c-7-3.444-12.397-3.226-19.404-3.226
	C406.912,320.064,386.896,341,386.056,365z M370,182h-70.031l-32.557,103H370V182z M387,285h50V182h-50V285z"/>
</svg>
