<?xml version="1.0" encoding="utf-8"?>
<!-- Generator: Adobe Illustrator 18.1.1, SVG Export Plug-In . SVG Version: 6.00 Build 0)  -->
<svg version="1.1" id="Layer_1" xmlns="http://www.w3.org/2000/svg" xmlns:xlink="http://www.w3.org/1999/xlink" x="0px" y="0px"
	 viewBox="0 0 512 512" style="enable-background:new 0 0 512 512;" xml:space="preserve">
<path style="fill:#EC8326;" d="M481,89.486v266.36c0,2.493-0.313,4.825-0.933,6.997c-0.626,2.179-1.866,3.732-3.732,4.665
	c-1.866,0.933-3.265,1.866-4.198,2.799c-0.933,0.933-2.959,1.56-6.063,1.866l-6.064,0.466H447.88
	c0,18.353-6.531,34.053-19.592,47.114c-13.062,13.061-28.768,19.592-47.115,19.592c-18.352,0-34.052-6.531-47.114-19.592
	c-13.061-13.061-19.592-28.761-19.592-47.114H214.64c0,18.353-6.531,34.053-19.592,47.114
	c-13.062,13.061-28.768,19.592-47.115,19.592c-18.352,0-34.052-6.531-47.114-19.592c-13.061-13.061-19.592-28.761-19.592-47.114
	H51.839c-1.246,0-3.112-0.153-5.598-0.466c-2.492-0.306-4.512-0.933-6.064-1.866l-4.198-2.799c-1.246-0.933-2.492-2.486-3.732-4.665
	c-1.246-2.172-1.559-4.504-0.933-6.997c0-4.665,1.553-8.55,4.665-11.662c3.106-3.105,6.997-4.818,11.662-5.131V236.893
	c0-1.866,0.306-4.818,0.933-8.863l1.399-9.796c0.306-2.485,1.553-5.131,3.732-7.93l6.063-7.93l51.314-51.313
	c3.418-3.418,7.769-6.217,13.061-8.397c5.285-2.172,10.416-3.265,15.394-3.265h41.516V89.486c0-4.665,1.706-8.703,5.131-12.129
	c3.419-3.418,7.303-4.971,11.662-4.665h266.36c4.664,0,8.549,1.56,11.661,4.665C478.974,80.47,480.687,84.515,481,89.486z
	 M81.228,239.226h99.826v-66.707h-41.05c-2.179,0-4.045,0.78-5.598,2.332L83.56,225.698c-1.56,1.56-2.332,3.426-2.332,5.598V239.226
	z M181.053,372.639c0-9.016-3.265-16.946-9.795-23.79c-6.531-6.837-14.308-10.102-23.325-9.796
	c-9.023,0.313-16.793,3.579-23.324,9.796c-6.531,6.224-9.956,14.155-10.262,23.79c-0.314,9.643,3.105,17.42,10.262,23.324
	c7.151,5.911,14.928,9.169,23.324,9.796c8.397,0.62,16.166-2.646,23.325-9.796C178.408,388.813,181.673,381.035,181.053,372.639z
	 M414.293,372.639c0-9.016-3.265-16.946-9.795-23.79c-6.531-6.837-14.308-10.102-23.325-9.796
	c-9.023,0.313-16.953,3.579-23.79,9.796c-6.844,6.224-10.11,14.155-9.795,23.79c0.306,9.643,3.571,17.42,9.795,23.324
	c6.218,5.911,14.148,9.169,23.79,9.796c9.637,0.62,17.414-2.646,23.325-9.796C410.401,388.813,413.667,381.035,414.293,372.639z"/>
</svg>
