<?xml version="1.0" encoding="utf-8"?>
<!-- Generator: Adobe Illustrator 18.1.1, SVG Export Plug-In . SVG Version: 6.00 Build 0)  -->
<svg version="1.1" id="Layer_1" xmlns="http://www.w3.org/2000/svg" xmlns:xlink="http://www.w3.org/1999/xlink" x="0px" y="0px"
	 viewBox="0 0 512 512" style="enable-background:new 0 0 512 512;" xml:space="preserve">
<path style="fill:#EC8326;" d="M472,362.446c5.986,6.428,9,13.745,9,22.303c0,8.578-3.214,16.108-9.643,22.536
	c-6.428,6.429-13.942,9.715-22.5,9.715h-225c-8.578,0-16.071-3.233-22.5-9.662c-6.428-6.429-9.643-13.94-9.643-22.519
	c0-8.558,3.215-15.964,9.643-22.392c6.429-6.429,13.922-9.427,22.5-9.427h225C458.279,353,465.994,356.017,472,362.446z M95.286,224
	H63.143c-9.442,0-17.156,3.213-23.144,9.642c-6.006,6.428-9,13.941-9,22.499c0,8.578,3.215,15.93,9.643,22.358
	c6.429,6.429,13.922,9.501,22.5,9.501h32.143c8.558,0,16.071-3.073,22.5-9.501c6.429-6.428,9.643-13.851,9.643-22.429
	c0-8.558-3.214-16.035-9.643-22.463C111.357,227.178,103.844,224,95.286,224z M95.286,353H63.143
	c-9.442,0-17.156,2.999-23.144,9.427c-6.006,6.428-9,13.834-9,22.392c0,8.578,3.215,16.09,9.643,22.519
	c6.429,6.429,13.922,9.662,22.5,9.662h32.143c8.558,0,16.071-3.287,22.5-9.715c6.429-6.429,9.643-13.958,9.643-22.536
	c0-8.558-3.214-15.874-9.643-22.303C111.357,356.017,103.844,353,95.286,353z M95.286,95H63.143c-9.442,0-17.156,3.427-23.144,9.856
	c-6.006,6.429-9,14.048-9,22.606c0,8.578,3.215,16.269,9.643,22.697c6.429,6.429,13.922,9.84,22.5,9.84h32.143
	c8.558,0,16.071-3.358,22.5-9.787c6.429-6.428,9.643-13.994,9.643-22.572c0-8.558-3.214-16.32-9.643-22.749
	C111.357,98.463,103.844,95,95.286,95z M448.857,224h-225c-8.578,0-16.071,3.213-22.5,9.642c-6.428,6.428-9.643,13.941-9.643,22.499
	c0,8.578,3.215,15.93,9.643,22.358c6.429,6.429,13.922,9.501,22.5,9.501h225c8.558,0,16.071-3.073,22.5-9.501
	c6.428-6.428,9.643-13.851,9.643-22.429c0-8.558-3.013-16.035-9-22.463C465.994,227.178,458.279,224,448.857,224z M448.857,95h-225
	c-8.578,0-16.071,3.427-22.5,9.856c-6.428,6.429-9.643,14.048-9.643,22.606c0,8.578,3.215,16.269,9.643,22.697
	c6.429,6.429,13.922,9.84,22.5,9.84h225c8.558,0,16.071-3.358,22.5-9.787c6.428-6.428,9.643-13.994,9.643-22.572
	c0-8.558-3.013-16.32-9-22.749C465.994,98.463,458.279,95,448.857,95z"/>
</svg>
