<?xml version="1.0" encoding="utf-8"?>
<!-- Generator: Adobe Illustrator 18.1.1, SVG Export Plug-In . SVG Version: 6.00 Build 0)  -->
<svg version="1.1" id="Layer_1" xmlns="http://www.w3.org/2000/svg" xmlns:xlink="http://www.w3.org/1999/xlink" x="0px" y="0px"
	 viewBox="0 0 512 512" style="enable-background:new 0 0 512 512;" xml:space="preserve">
<path style="fill:#EC8326;" d="M194.999,313c-12,3.344-17.671,7.172-17,11.5C178.656,328.844,186,331,200,331h281v38
	c0,6.672-3.344,10-10,10h-65H156h-12.001c-6.672,0-10-3.328-10-10v-38l-5-23L80,81H31V41c0-6.656,3.328-10,10-10h78
	c6.655,0,10,3.344,10,10v43h352V221c0,7.343-3,11.672-9,13L194.999,313z M106,431c0-13.328,5-25,14.999-35
	C131,386,142.656,381,156,381c14,0,25.828,5,35.5,15c9.656,10,14.5,21.672,14.5,35c0,14-4.843,25.844-14.5,35.5
	C181.828,476.172,170,481,156,481c-13.344,0-25-4.828-35.001-14.5C110.999,456.844,106,445,106,431z M356,431
	c0-13.328,5-25,14.999-35C381,386,392.657,381,406,381c14,0,25.828,5,35.5,15c9.656,10,14.5,21.672,14.5,35
	c0,14-4.843,25.844-14.5,35.5C431.828,476.172,420,481,406,481c-13.344,0-25-4.828-35.001-14.5C361,456.844,356,445,356,431z"/>
</svg>
