<?xml version="1.0" encoding="iso-8859-1"?>
<!-- Generator: Adobe Illustrator 18.1.1, SVG Export Plug-In . SVG Version: 6.00 Build 0)  -->
<svg version="1.1" id="freeman_x5F_logo" xmlns="http://www.w3.org/2000/svg" xmlns:xlink="http://www.w3.org/1999/xlink" x="0px"
	 y="0px" viewBox="0 0 190.883 26.741" style="enable-background:new 0 0 190.883 26.741;" xml:space="preserve">
<path id="Freeman" style="fill:#FFFFFF;" d="M40.632,4.655V6.71h-7.21v5.013h6.122v2.055h-6.122v6.535h-2.556V4.655H40.632z
	 M43.46,20.314V9.222h1.359c0.247,0,0.417,0.045,0.511,0.136c0.094,0.091,0.159,0.248,0.196,0.473l0.13,1.446
	c0.355-0.703,0.779-1.256,1.272-1.658c0.493-0.402,1.084-0.604,1.772-0.604c0.239,0,0.464,0.027,0.674,0.082
	c0.21,0.055,0.399,0.136,0.566,0.245l-0.163,1.762c-0.029,0.124-0.075,0.209-0.136,0.256c-0.062,0.047-0.143,0.071-0.245,0.071
	c-0.109,0-0.265-0.02-0.468-0.06c-0.203-0.04-0.417-0.06-0.641-0.06c-0.326,0-0.616,0.047-0.87,0.142
	c-0.254,0.094-0.479,0.232-0.674,0.413c-0.196,0.181-0.37,0.402-0.522,0.663c-0.152,0.261-0.294,0.559-0.424,0.892v6.894H43.46z
	 M56.89,9.048c0.681,0,1.312,0.111,1.892,0.332c0.58,0.221,1.08,0.546,1.501,0.973c0.42,0.428,0.749,0.952,0.984,1.572
	c0.235,0.62,0.353,1.325,0.353,2.115c0,0.362-0.04,0.606-0.12,0.729c-0.08,0.123-0.225,0.185-0.435,0.185h-7.123
	c0.029,0.631,0.127,1.176,0.294,1.637c0.167,0.46,0.39,0.843,0.669,1.147c0.279,0.305,0.612,0.531,1,0.68
	c0.388,0.149,0.821,0.223,1.3,0.223c0.457,0,0.852-0.053,1.185-0.158c0.333-0.105,0.623-0.221,0.87-0.348
	c0.246-0.127,0.457-0.243,0.631-0.348c0.174-0.105,0.333-0.158,0.479-0.158c0.188,0,0.333,0.073,0.435,0.218l0.663,0.859
	c-0.276,0.326-0.587,0.602-0.935,0.826c-0.348,0.225-0.718,0.408-1.109,0.549c-0.391,0.142-0.794,0.243-1.207,0.304
	c-0.413,0.062-0.816,0.093-1.207,0.093c-0.769,0-1.481-0.129-2.137-0.386c-0.656-0.257-1.225-0.636-1.707-1.136
	c-0.482-0.5-0.859-1.12-1.131-1.86c-0.272-0.74-0.408-1.591-0.408-2.556c0-0.768,0.121-1.486,0.364-2.153
	c0.243-0.667,0.591-1.247,1.044-1.74s1.004-0.883,1.653-1.169C55.336,9.192,56.07,9.048,56.89,9.048z M56.933,10.744
	c-0.848,0-1.515,0.243-2.001,0.729c-0.486,0.486-0.794,1.167-0.924,2.044h5.514c0-0.391-0.056-0.756-0.169-1.093
	c-0.113-0.337-0.277-0.631-0.495-0.881c-0.218-0.25-0.488-0.446-0.81-0.587C57.725,10.815,57.353,10.744,56.933,10.744z
	 M69.634,9.048c0.681,0,1.312,0.111,1.892,0.332c0.58,0.221,1.08,0.546,1.501,0.973c0.42,0.428,0.749,0.952,0.984,1.572
	c0.236,0.62,0.353,1.325,0.353,2.115c0,0.362-0.04,0.606-0.12,0.729s-0.225,0.185-0.435,0.185h-7.123
	c0.029,0.631,0.127,1.176,0.293,1.637c0.167,0.46,0.39,0.843,0.669,1.147c0.279,0.305,0.612,0.531,1,0.68
	c0.388,0.149,0.821,0.223,1.299,0.223c0.457,0,0.852-0.053,1.185-0.158s0.623-0.221,0.87-0.348c0.246-0.127,0.457-0.243,0.631-0.348
	c0.174-0.105,0.333-0.158,0.479-0.158c0.188,0,0.333,0.073,0.435,0.218l0.663,0.859c-0.275,0.326-0.587,0.602-0.935,0.826
	c-0.348,0.225-0.718,0.408-1.109,0.549c-0.391,0.142-0.794,0.243-1.207,0.304c-0.413,0.062-0.816,0.093-1.207,0.093
	c-0.768,0-1.481-0.129-2.137-0.386c-0.656-0.257-1.225-0.636-1.707-1.136c-0.482-0.5-0.859-1.12-1.131-1.86
	c-0.272-0.74-0.408-1.591-0.408-2.556c0-0.768,0.121-1.486,0.364-2.153c0.243-0.667,0.591-1.247,1.044-1.74
	c0.453-0.493,1.004-0.883,1.653-1.169C68.081,9.192,68.815,9.048,69.634,9.048z M69.678,10.744c-0.848,0-1.515,0.243-2.001,0.729
	c-0.486,0.486-0.794,1.167-0.924,2.044h5.513c0-0.391-0.056-0.756-0.168-1.093c-0.113-0.337-0.277-0.631-0.495-0.881
	c-0.217-0.25-0.488-0.446-0.81-0.587C70.469,10.815,70.098,10.744,69.678,10.744z M77.518,20.314V9.222h1.414
	c0.319,0,0.522,0.149,0.609,0.446l0.152,0.968c0.203-0.232,0.413-0.444,0.631-0.636c0.218-0.192,0.451-0.359,0.702-0.5
	s0.518-0.252,0.805-0.332c0.286-0.08,0.596-0.12,0.93-0.12c0.355,0,0.682,0.051,0.979,0.153c0.297,0.102,0.56,0.246,0.788,0.435
	c0.228,0.189,0.426,0.417,0.593,0.685c0.167,0.268,0.304,0.569,0.413,0.903c0.167-0.384,0.377-0.714,0.631-0.99
	c0.254-0.275,0.536-0.5,0.848-0.674c0.312-0.174,0.643-0.302,0.995-0.386c0.351-0.083,0.708-0.125,1.071-0.125
	c0.594,0,1.125,0.095,1.593,0.283c0.468,0.189,0.863,0.462,1.185,0.821c0.323,0.359,0.567,0.799,0.734,1.321
	c0.167,0.522,0.25,1.117,0.25,1.783v7.057h-2.338v-7.057c0-0.783-0.168-1.372-0.506-1.767c-0.337-0.395-0.836-0.593-1.495-0.593
	c-0.297,0-0.576,0.051-0.837,0.152c-0.261,0.102-0.489,0.25-0.685,0.446c-0.196,0.196-0.35,0.44-0.462,0.734
	c-0.112,0.293-0.168,0.636-0.168,1.028v7.057H84.01v-7.057c0-0.812-0.163-1.408-0.49-1.789c-0.326-0.38-0.804-0.571-1.435-0.571
	c-0.435,0-0.837,0.111-1.207,0.331c-0.37,0.221-0.711,0.524-1.022,0.908v8.178H77.518z M103.497,20.314
	c-0.225,0-0.395-0.034-0.511-0.103c-0.116-0.069-0.214-0.208-0.293-0.419l-0.228-0.903c-0.283,0.261-0.562,0.49-0.837,0.685
	c-0.276,0.196-0.56,0.362-0.854,0.5c-0.293,0.138-0.609,0.241-0.946,0.31c-0.337,0.069-0.709,0.104-1.115,0.104
	c-0.45,0-0.868-0.062-1.256-0.185c-0.388-0.124-0.723-0.31-1.006-0.56c-0.283-0.25-0.506-0.56-0.669-0.93
	c-0.163-0.369-0.245-0.804-0.245-1.305c0-0.428,0.114-0.844,0.342-1.25s0.605-0.77,1.131-1.093c0.526-0.323,1.218-0.589,2.077-0.799
	s1.919-0.33,3.181-0.359v-0.739c0-0.797-0.17-1.392-0.511-1.783c-0.341-0.391-0.841-0.587-1.501-0.587
	c-0.45,0-0.827,0.056-1.131,0.168c-0.304,0.113-0.569,0.234-0.794,0.364c-0.225,0.131-0.424,0.252-0.598,0.364
	c-0.174,0.113-0.359,0.169-0.555,0.169c-0.159,0-0.295-0.042-0.408-0.125c-0.112-0.084-0.205-0.187-0.277-0.31l-0.424-0.761
	c1.254-1.167,2.748-1.751,4.48-1.751c0.638,0,1.205,0.104,1.702,0.31c0.497,0.207,0.914,0.499,1.25,0.875
	c0.337,0.377,0.594,0.825,0.772,1.343c0.177,0.519,0.266,1.093,0.266,1.724v7.046H103.497z M99.419,18.857
	c0.609,0,1.133-0.114,1.571-0.342c0.439-0.228,0.864-0.557,1.278-0.984v-2.066c-0.834,0.036-1.537,0.105-2.11,0.207
	c-0.573,0.102-1.037,0.236-1.392,0.402c-0.355,0.167-0.611,0.36-0.767,0.582c-0.156,0.221-0.234,0.466-0.234,0.734
	c0,0.261,0.042,0.484,0.125,0.669c0.083,0.185,0.199,0.337,0.348,0.457c0.148,0.12,0.323,0.207,0.522,0.261
	C98.96,18.83,99.18,18.857,99.419,18.857z M108.249,20.314V9.222h1.414c0.319,0,0.522,0.149,0.609,0.446l0.163,1.033
	c0.232-0.247,0.477-0.471,0.734-0.674c0.257-0.203,0.531-0.377,0.821-0.522c0.29-0.145,0.6-0.257,0.93-0.337
	c0.33-0.08,0.687-0.12,1.071-0.12c0.609,0,1.143,0.102,1.604,0.305c0.46,0.203,0.848,0.489,1.164,0.859s0.553,0.814,0.712,1.332
	c0.159,0.519,0.239,1.089,0.239,1.713v7.057h-2.327v-7.057c0-0.747-0.172-1.327-0.517-1.74c-0.344-0.413-0.868-0.62-1.571-0.62
	c-0.522,0-1.006,0.12-1.452,0.358c-0.446,0.239-0.864,0.566-1.256,0.979v8.08H108.249z"/>
<path id="Online" style="fill:#A8A8A8;" d="M136.794,12.484c0,1.16-0.188,2.229-0.565,3.208c-0.377,0.979-0.908,1.822-1.593,2.528
	s-1.508,1.26-2.468,1.658c-0.961,0.399-2.028,0.598-3.203,0.598c-1.167,0-2.231-0.199-3.192-0.598
	c-0.961-0.399-1.785-0.952-2.474-1.658c-0.689-0.707-1.222-1.55-1.599-2.528c-0.377-0.979-0.565-2.048-0.565-3.208
	c0-1.16,0.188-2.229,0.565-3.208c0.377-0.979,0.91-1.823,1.599-2.534c0.689-0.711,1.513-1.265,2.474-1.664
	c0.961-0.399,2.024-0.598,3.192-0.598c1.175,0,2.242,0.2,3.203,0.598c0.96,0.399,1.783,0.953,2.468,1.664
	c0.685,0.71,1.216,1.555,1.593,2.534C136.606,10.255,136.794,11.324,136.794,12.484z M134.195,12.484
	c0-0.899-0.121-1.707-0.364-2.425c-0.243-0.718-0.591-1.327-1.044-1.827c-0.453-0.5-1.003-0.884-1.648-1.153
	c-0.645-0.268-1.37-0.402-2.175-0.402c-0.798,0-1.519,0.135-2.164,0.402c-0.645,0.268-1.196,0.653-1.653,1.153
	c-0.457,0.5-0.808,1.109-1.055,1.827c-0.247,0.718-0.37,1.526-0.37,2.425c0,0.906,0.123,1.718,0.37,2.436
	c0.246,0.718,0.598,1.325,1.055,1.822c0.457,0.497,1.008,0.877,1.653,1.142s1.367,0.397,2.164,0.397
	c0.805,0,1.529-0.132,2.175-0.397c0.645-0.265,1.194-0.645,1.648-1.142c0.453-0.497,0.801-1.104,1.044-1.822
	C134.074,14.203,134.195,13.391,134.195,12.484z M140.579,20.314V9.222h1.414c0.319,0,0.522,0.149,0.609,0.446l0.163,1.033
	c0.232-0.247,0.477-0.471,0.734-0.674c0.257-0.203,0.531-0.377,0.821-0.522c0.29-0.145,0.6-0.257,0.93-0.337
	c0.33-0.08,0.687-0.12,1.071-0.12c0.609,0,1.144,0.102,1.604,0.305c0.46,0.203,0.848,0.489,1.163,0.859s0.553,0.814,0.712,1.332
	c0.16,0.519,0.239,1.089,0.239,1.713v7.057h-2.327v-7.057c0-0.747-0.172-1.327-0.517-1.74c-0.344-0.413-0.868-0.62-1.571-0.62
	c-0.522,0-1.006,0.12-1.452,0.358c-0.446,0.239-0.865,0.566-1.256,0.979v8.08H140.579z M156.792,4.22v16.094h-2.338V4.22H156.792z
	 M164.143,5.873c0,0.21-0.042,0.409-0.125,0.598c-0.083,0.188-0.197,0.353-0.343,0.495c-0.145,0.141-0.314,0.254-0.506,0.337
	c-0.192,0.083-0.397,0.125-0.614,0.125c-0.21,0-0.408-0.042-0.593-0.125c-0.185-0.084-0.346-0.196-0.484-0.337
	c-0.138-0.141-0.248-0.306-0.332-0.495c-0.083-0.189-0.125-0.388-0.125-0.598c0-0.218,0.042-0.42,0.125-0.609
	c0.083-0.188,0.194-0.353,0.332-0.495c0.138-0.142,0.299-0.254,0.484-0.337c0.185-0.083,0.382-0.125,0.593-0.125
	c0.217,0,0.422,0.042,0.614,0.125c0.192,0.084,0.36,0.196,0.506,0.337c0.145,0.141,0.259,0.306,0.343,0.495
	C164.102,5.452,164.143,5.655,164.143,5.873z M163.752,9.222v11.092h-2.338V9.222H163.752z M168.33,20.314V9.222h1.414
	c0.319,0,0.522,0.149,0.609,0.446l0.163,1.033c0.232-0.247,0.477-0.471,0.734-0.674c0.257-0.203,0.531-0.377,0.821-0.522
	c0.29-0.145,0.6-0.257,0.93-0.337c0.33-0.08,0.687-0.12,1.071-0.12c0.609,0,1.143,0.102,1.604,0.305
	c0.46,0.203,0.848,0.489,1.164,0.859s0.553,0.814,0.712,1.332c0.159,0.519,0.239,1.089,0.239,1.713v7.057h-2.327v-7.057
	c0-0.747-0.172-1.327-0.517-1.74c-0.344-0.413-0.868-0.62-1.571-0.62c-0.522,0-1.006,0.12-1.452,0.358
	c-0.446,0.239-0.864,0.566-1.256,0.979v8.08H168.33z M186.153,9.048c0.681,0,1.312,0.111,1.892,0.332
	c0.58,0.221,1.08,0.546,1.501,0.973c0.42,0.428,0.749,0.952,0.984,1.572c0.235,0.62,0.353,1.325,0.353,2.115
	c0,0.362-0.04,0.606-0.12,0.729c-0.08,0.123-0.225,0.185-0.435,0.185h-7.123c0.029,0.631,0.127,1.176,0.294,1.637
	c0.167,0.46,0.39,0.843,0.669,1.147c0.279,0.305,0.612,0.531,1,0.68c0.388,0.149,0.821,0.223,1.3,0.223
	c0.457,0,0.852-0.053,1.185-0.158c0.333-0.105,0.623-0.221,0.87-0.348c0.246-0.127,0.457-0.243,0.631-0.348
	c0.174-0.105,0.333-0.158,0.479-0.158c0.188,0,0.333,0.073,0.435,0.218l0.663,0.859c-0.276,0.326-0.587,0.602-0.935,0.826
	c-0.348,0.225-0.718,0.408-1.109,0.549c-0.391,0.142-0.794,0.243-1.207,0.304c-0.413,0.062-0.816,0.093-1.207,0.093
	c-0.769,0-1.481-0.129-2.137-0.386c-0.656-0.257-1.225-0.636-1.707-1.136c-0.482-0.5-0.859-1.12-1.131-1.86
	c-0.272-0.74-0.408-1.591-0.408-2.556c0-0.768,0.121-1.486,0.364-2.153c0.243-0.667,0.591-1.247,1.044-1.74
	c0.453-0.493,1.004-0.883,1.653-1.169C184.599,9.192,185.333,9.048,186.153,9.048z M186.196,10.744
	c-0.848,0-1.515,0.243-2.001,0.729c-0.486,0.486-0.794,1.167-0.924,2.044h5.514c0-0.391-0.056-0.756-0.169-1.093
	c-0.113-0.337-0.277-0.631-0.495-0.881c-0.218-0.25-0.488-0.446-0.81-0.587C186.988,10.815,186.617,10.744,186.196,10.744z"/>
<path id="cart" style="fill:#004B8D;" d="M10.947,15.048c-0.353,0.098-0.52,0.211-0.5,0.34c0.02,0.127,0.236,0.19,0.649,0.19h8.273
	v1.12c0,0.196-0.1,0.293-0.295,0.293h-1.914H9.8H9.445c-0.197,0-0.293-0.097-0.293-0.293v-1.12l-0.147-0.677l-1.44-6.682H6.119
	V7.041c0-0.195,0.096-0.295,0.293-0.295h2.298c0.196,0,0.295,0.1,0.295,0.295v1.267h10.363v4.033c0,0.217-0.089,0.343-0.265,0.383
	L10.947,15.048z M8.328,18.523c0-0.392,0.146-0.735,0.439-1.03c0.297-0.294,0.639-0.44,1.032-0.44c0.412,0,0.759,0.147,1.045,0.44
	c0.284,0.295,0.427,0.638,0.427,1.03c0,0.413-0.143,0.762-0.427,1.046c-0.287,0.284-0.633,0.427-1.045,0.427
	c-0.394,0-0.736-0.142-1.032-0.427C8.474,19.285,8.328,18.936,8.328,18.523z M15.687,18.523c0-0.392,0.147-0.735,0.444-1.03
	c0.291-0.294,0.635-0.44,1.028-0.44c0.413,0,0.762,0.147,1.046,0.44c0.283,0.295,0.427,0.638,0.427,1.03
	c0,0.413-0.144,0.762-0.427,1.046c-0.284,0.284-0.633,0.427-1.046,0.427c-0.393,0-0.737-0.142-1.028-0.427
	C15.835,19.285,15.687,18.936,15.687,18.523z"/>
<path id="circle" style="fill:#F48120;" d="M13.386,0C5.993,0,0,5.993,0,13.386c0,7.393,5.993,13.386,13.386,13.386
	s13.386-5.993,13.386-13.386C26.773,5.993,20.779,0,13.386,0z M13.386,25.4c-6.635,0-12.013-5.379-12.013-12.013
	c0-6.635,5.379-12.013,12.013-12.013c6.635,0,12.013,5.379,12.013,12.013C25.4,20.021,20.021,25.4,13.386,25.4z"/>
</svg>
