<?xml version="1.0" encoding="utf-8"?>
<!-- Generator: Adobe Illustrator 18.1.1, SVG Export Plug-In . SVG Version: 6.00 Build 0)  -->
<svg version="1.1" id="Layer_1" xmlns="http://www.w3.org/2000/svg" xmlns:xlink="http://www.w3.org/1999/xlink" x="0px" y="0px"
	 viewBox="0 0 512 512" style="enable-background:new 0 0 512 512;" xml:space="preserve">
<path style="fill:#EC8326;" d="M31.058,258.934c-1.314-61.942,19.883-115.249,63.577-159.921
	c43.679-44.657,96.496-67.321,158.453-67.978c61.942-0.642,115.08,20.54,159.431,63.577c44.336,43.037,67.153,95.534,68.467,157.475
	c0.642,61.957-20.708,115.263-64.066,159.92c-43.373,44.672-96.022,67.657-157.964,68.956
	c-61.957,0.657-115.264-20.693-159.92-64.066C54.364,373.54,31.699,320.891,31.058,258.934L31.058,258.934z M203.204,345.008
	c-8.482,33.913-2.934,50.862,16.628,50.862c9.781,0,23.474-4.234,41.08-12.716c17.606-8.467,34.876-21.182,51.84-38.146
	l-8.803-11.738c-15.649,11.738-27.387,17.606-35.212,17.606c-4.569,0-5.227-6.189-1.956-18.584l20.54-78.248
	c8.467-31.299,4.891-46.949-10.759-46.949c-9.781,0-24.3,4.737-43.526,14.182c-19.241,9.46-37.993,21.687-56.241,36.679
	l7.825,12.715c16.949-11.08,29.007-16.628,36.19-16.628c3.912,0,3.912,5.548,0,16.628L203.204,345.008L203.204,345.008z
	 M307.861,133.737c0-18.905-9.781-28.365-29.343-28.365c-13.693,0-24.3,3.912-31.788,11.737
	c-7.504,7.825-11.248,15.986-11.248,24.453c-0.657,9.139,1.788,16.307,7.336,21.518c5.532,5.227,13.526,7.825,23.964,7.825
	c12.379,0,22.328-3.576,29.832-10.759C304.102,152.978,307.861,144.175,307.861,133.737L307.861,133.737z"/>
</svg>
