<?xml version="1.0" encoding="utf-8"?>
<!-- Generator: Adobe Illustrator 18.1.1, SVG Export Plug-In . SVG Version: 6.00 Build 0)  -->
<svg version="1.1" id="Layer_1" xmlns="http://www.w3.org/2000/svg" xmlns:xlink="http://www.w3.org/1999/xlink" x="0px" y="0px"
	 viewBox="0 0 512 512" style="enable-background:new 0 0 512 512;" xml:space="preserve">
<path style="fill:#EC8326;" d="M161.899,130.051c-0.507,54.119,44.811,100.537,98.849,101.246
	c55.836,0.733,101.995-45.79,101.379-102.179C361.518,73.455,318.105,31.074,261.619,31
	C205.986,30.927,162.422,74.199,161.899,130.051z M256.991,310.287c-2.907-0.038-5.293,2.288-5.331,5.195
	c-0.038,2.907,2.288,5.293,5.195,5.331s5.293-2.288,5.331-5.195S259.897,310.324,256.991,310.287z M256.204,371.287
	c-2.907-0.038-5.293,2.288-5.331,5.195c-0.038,2.907,2.288,5.293,5.195,5.331c2.907,0.038,5.293-2.288,5.331-5.195
	S259.11,371.324,256.204,371.287z M255.416,432.286c-2.907-0.038-5.293,2.288-5.331,5.195c-0.038,2.907,2.288,5.293,5.195,5.331
	c2.907,0.038,5.293-2.288,5.331-5.195S258.323,432.324,255.416,432.286z M439.249,481c1.087-26.582,4.158-114.913-1.116-156.385
	c-5.75-45.213-48.876-66.688-92.314-67.248c-12.808,73.45-37.756,174.163-88.517,205.412
	c-50.721-28.252-97.68-208.72-98.157-208.726c-47.373-0.611-83.687,46.288-86.773,90.185c-2.43,34.564-1.245,118.68-0.954,136.763
	H439.249z M311.387,302.861l0.648-50.229l-41.732,15.376c-3.083-4.428-8.195-7.34-14.002-7.34c-5.539,0-10.41,2.679-13.531,6.765
	l-37.184-14.802l-0.648,50.229l38.378-14.141c3.131,3.703,7.754,6.104,12.985,6.104c5.583,0,10.495-2.718,13.609-6.861l4.189,0.054
	L311.387,302.861z"/>
</svg>
