<?xml version="1.0" encoding="utf-8"?>
<!-- Generator: Adobe Illustrator 18.1.1, SVG Export Plug-In . SVG Version: 6.00 Build 0)  -->
<svg version="1.1" id="Layer_1" xmlns="http://www.w3.org/2000/svg" xmlns:xlink="http://www.w3.org/1999/xlink" x="0px" y="0px"
	 viewBox="0 0 512 512" style="enable-background:new 0 0 512 512;" xml:space="preserve">
<path style="fill:#EC8326;" d="M437.314,48.48H74.728C50.875,48.48,31,68.355,31,92.207V334.7c0,23.852,19.875,43.727,43.728,43.727
	h197.193c16.686,0,31.804,33.372,39.755,54.87c7.951,19.875,12.709,30.222,24.633,30.222c7.171,0,43.733-3.976,69.164-85.051h31.799
	c23.853,0,43.728-19.876,43.728-43.727V92.207C481.047,68.355,461.167,48.48,437.314,48.48z M130.38,136.72h247.261
	c6.373,0,11.13,5.544,11.13,11.927c0,6.381-4.758,11.925-11.084,11.925H130.38c-6.368,0-11.13-5.544-11.13-11.925
	C119.25,142.264,124.012,136.72,130.38,136.72z M130.38,200.324h247.261c6.373,0,11.13,5.544,11.13,11.927
	c0,6.382-4.758,11.925-11.084,11.925H130.38c-6.368,0-11.13-5.544-11.13-11.925C119.25,205.868,124.012,200.324,130.38,200.324z
	 M377.688,287.78H130.38c-6.368,0-11.13-5.543-11.13-11.925c0-6.383,4.762-11.927,11.13-11.927h247.261
	c6.373,0,11.13,5.543,11.13,11.927C389.612,282.237,384.014,287.78,377.688,287.78z"/>
</svg>
